<svg viewBox="0 0 181 25" fill="#673AB7" xmlns="http://www.w3.org/2000/svg"><path d="M18.5469 24H13.8594V14.25H4.71875V24H0.03125V1.25H4.71875V10.4688H13.8594V1.25H18.5469V24ZM30.1406 24.3125C27.6615 24.3125 25.6406 23.5521 24.0781 22.0312C22.526 20.5104 21.75 18.4844 21.75 15.9531V15.5156C21.75 13.8177 22.0781 12.3021 22.7344 10.9688C23.3906 9.625 24.3177 8.59375 25.5156 7.875C26.724 7.14583 28.099 6.78125 29.6406 6.78125C31.9531 6.78125 33.7708 7.51042 35.0938 8.96875C36.4271 10.4271 37.0938 12.4948 37.0938 15.1719V17.0156H26.3281C26.474 18.1198 26.9115 19.0052 27.6406 19.6719C28.3802 20.3385 29.3125 20.6719 30.4375 20.6719C32.1771 20.6719 33.5365 20.0417 34.5156 18.7812L36.7344 21.2656C36.0573 22.224 35.1406 22.974 33.9844 23.5156C32.8281 24.0469 31.5469 24.3125 30.1406 24.3125ZM29.625 10.4375C28.7292 10.4375 28 10.7396 27.4375 11.3438C26.8854 11.9479 26.5312 12.8125 26.375 13.9375H32.6562V13.5781C32.6354 12.5781 32.3646 11.8073 31.8438 11.2656C31.3229 10.7135 30.5833 10.4375 29.625 10.4375ZM49.4688 24C49.2604 23.5938 49.1094 23.0885 49.0156 22.4844C47.9219 23.7031 46.5 24.3125 44.75 24.3125C43.0938 24.3125 41.7188 23.8333 40.625 22.875C39.5417 21.9167 39 20.7083 39 19.25C39 17.4583 39.6615 16.0833 40.9844 15.125C42.3177 14.1667 44.2396 13.6823 46.75 13.6719H48.8281V12.7031C48.8281 11.9219 48.625 11.2969 48.2188 10.8281C47.8229 10.3594 47.1927 10.125 46.3281 10.125C45.5677 10.125 44.9688 10.3073 44.5312 10.6719C44.1042 11.0365 43.8906 11.5365 43.8906 12.1719H39.375C39.375 11.1927 39.6771 10.2865 40.2812 9.45312C40.8854 8.61979 41.7396 7.96875 42.8438 7.5C43.9479 7.02083 45.1875 6.78125 46.5625 6.78125C48.6458 6.78125 50.2969 7.30729 51.5156 8.35938C52.7448 9.40104 53.3594 10.8698 53.3594 12.7656V20.0938C53.3698 21.6979 53.5938 22.9115 54.0312 23.7344V24H49.4688ZM45.7344 20.8594C46.401 20.8594 47.0156 20.7135 47.5781 20.4219C48.1406 20.1198 48.5573 19.7188 48.8281 19.2188V16.3125H47.1406C44.8802 16.3125 43.6771 17.0938 43.5312 18.6562L43.5156 18.9219C43.5156 19.4844 43.7135 19.9479 44.1094 20.3125C44.5052 20.6771 45.0469 20.8594 45.7344 20.8594ZM61.5938 24H57.0625V0H61.5938V24ZM70.7344 2.9375V7.09375H73.625V10.4062H70.7344V18.8438C70.7344 19.4688 70.8542 19.9167 71.0938 20.1875C71.3333 20.4583 71.7917 20.5938 72.4688 20.5938C72.9688 20.5938 73.4115 20.5573 73.7969 20.4844V23.9062C72.9115 24.1771 72 24.3125 71.0625 24.3125C67.8958 24.3125 66.2812 22.7135 66.2188 19.5156V10.4062H63.75V7.09375H66.2188V2.9375H70.7344ZM80.5469 8.9375C81.7448 7.5 83.25 6.78125 85.0625 6.78125C88.7292 6.78125 90.5885 8.91146 90.6406 13.1719V24H86.125V13.2969C86.125 12.3281 85.9167 11.6146 85.5 11.1562C85.0833 10.6875 84.3906 10.4531 83.4219 10.4531C82.099 10.4531 81.1406 10.9635 80.5469 11.9844V24H76.0312V0H80.5469V8.9375ZM118.5 5.04688H111.531V24H106.844V5.04688H99.9688V1.25H118.5V5.04688ZM129.359 11.3281C128.745 11.2448 128.203 11.2031 127.734 11.2031C126.026 11.2031 124.906 11.7812 124.375 12.9375V24H119.859V7.09375H124.125L124.25 9.10938C125.156 7.55729 126.411 6.78125 128.016 6.78125C128.516 6.78125 128.984 6.84896 129.422 6.98438L129.359 11.3281ZM140.875 24C140.667 23.5938 140.516 23.0885 140.422 22.4844C139.328 23.7031 137.906 24.3125 136.156 24.3125C134.5 24.3125 133.125 23.8333 132.031 22.875C130.948 21.9167 130.406 20.7083 130.406 19.25C130.406 17.4583 131.068 16.0833 132.391 15.125C133.724 14.1667 135.646 13.6823 138.156 13.6719H140.234V12.7031C140.234 11.9219 140.031 11.2969 139.625 10.8281C139.229 10.3594 138.599 10.125 137.734 10.125C136.974 10.125 136.375 10.3073 135.938 10.6719C135.51 11.0365 135.297 11.5365 135.297 12.1719H130.781C130.781 11.1927 131.083 10.2865 131.688 9.45312C132.292 8.61979 133.146 7.96875 134.25 7.5C135.354 7.02083 136.594 6.78125 137.969 6.78125C140.052 6.78125 141.703 7.30729 142.922 8.35938C144.151 9.40104 144.766 10.8698 144.766 12.7656V20.0938C144.776 21.6979 145 22.9115 145.438 23.7344V24H140.875ZM137.141 20.8594C137.807 20.8594 138.422 20.7135 138.984 20.4219C139.547 20.1198 139.964 19.7188 140.234 19.2188V16.3125H138.547C136.286 16.3125 135.083 17.0938 134.938 18.6562L134.922 18.9219C134.922 19.4844 135.12 19.9479 135.516 20.3125C135.911 20.6771 136.453 20.8594 137.141 20.8594ZM155.266 20.6719C156.099 20.6719 156.776 20.4427 157.297 19.9844C157.818 19.526 158.089 18.9167 158.109 18.1562H162.344C162.333 19.3021 162.021 20.3542 161.406 21.3125C160.792 22.2604 159.948 23 158.875 23.5312C157.812 24.0521 156.635 24.3125 155.344 24.3125C152.927 24.3125 151.021 23.5469 149.625 22.0156C148.229 20.474 147.531 18.349 147.531 15.6406V15.3438C147.531 12.7396 148.224 10.6615 149.609 9.10938C150.995 7.55729 152.896 6.78125 155.312 6.78125C157.427 6.78125 159.12 7.38542 160.391 8.59375C161.672 9.79167 162.323 11.3906 162.344 13.3906H158.109C158.089 12.5156 157.818 11.8073 157.297 11.2656C156.776 10.7135 156.089 10.4375 155.234 10.4375C154.182 10.4375 153.385 10.8229 152.844 11.5938C152.312 12.3542 152.047 13.5938 152.047 15.3125V15.7812C152.047 17.5208 152.312 18.7708 152.844 19.5312C153.375 20.2917 154.182 20.6719 155.266 20.6719ZM171.062 17.2188L169.438 18.8438V24H164.922V0H169.438V13.2969L170.312 12.1719L174.641 7.09375H180.062L173.953 14.1406L180.594 24H175.406L171.062 17.2188Z" fill="inherit"/></svg>
